<svg width="25" height="25" viewBox="0 0 25 25" fill="none" xmlns="http://www.w3.org/2000/svg">
<path d="M24.3973 25.001V25H24.4034V15.8312C24.4034 11.3458 23.4609 7.89062 18.3423 7.89062C15.8816 7.89062 14.2303 9.27396 13.5562 10.5854H13.485V8.30937H8.63184V25H13.6853V16.7354C13.6853 14.5594 14.088 12.4552 16.7185 12.4552C19.3103 12.4552 19.3489 14.9385 19.3489 16.875V25.001H24.3973Z" fill="#DF6951"/>
<path d="M0.402344 8.31055H5.46151V25.0012H0.402344V8.31055Z" fill="#DF6951"/>
<path d="M2.93017 0C1.31258 0 0 1.34479 0 3.00208C0 4.65938 1.31258 6.03229 2.93017 6.03229C4.54776 6.03229 5.86033 4.65938 5.86033 3.00208C5.85931 1.34479 4.54674 0 2.93017 0V0Z" fill="#DF6951"/>
</svg>
