<svg width="26" height="25" viewBox="0 0 26 25" fill="none" xmlns="http://www.w3.org/2000/svg">
<path d="M22.5091 7.40938C23.5015 6.6875 24.3363 5.78646 25.0165 4.74896V4.74792C24.1085 5.15521 23.1426 5.42604 22.1339 5.55729C23.171 4.92292 23.9631 3.92604 24.3353 2.725C23.3683 3.31562 22.3006 3.73229 21.1628 3.96563C20.2447 2.96354 18.9361 2.34375 17.5085 2.34375C14.7387 2.34375 12.5088 4.64688 12.5088 7.46979C12.5088 7.87604 12.5424 8.26667 12.6248 8.63854C8.46604 8.43021 4.78522 6.38854 2.31236 3.27708C1.88123 4.04479 1.62703 4.92292 1.62703 5.86771C1.62703 7.64271 2.51877 9.21563 3.84976 10.1271C3.04547 10.1115 2.25745 9.87188 1.58941 9.49583V9.55208C1.58941 12.0427 3.32306 14.1115 5.59764 14.5885C5.18991 14.7031 4.74658 14.7573 4.28597 14.7573C3.96568 14.7573 3.64233 14.7385 3.33933 14.6698C3.98703 16.699 5.82744 18.1917 8.01357 18.2406C6.31144 19.6042 4.14972 20.426 1.81006 20.426C1.40029 20.426 1.00678 20.4073 0.613281 20.3563C2.82991 21.8198 5.45529 22.6563 8.2881 22.6563C17.117 22.6563 22.8711 15.1104 22.5091 7.40938Z" fill="#DF6951"/>
</svg>
