<svg width="25" height="25" viewBox="0 0 25 25" fill="none" xmlns="http://www.w3.org/2000/svg">
<path d="M10.7072 17.623C10.7723 17.5667 10.8384 17.5084 10.8994 17.4469C7.50226 20.8615 1.96272 19.2678 0.664266 14.4522V14.4449C-1.07752 7.89278 6.26684 2.9157 10.8974 7.49903C10.994 7.60424 17.3907 14.5928 16.9839 14.148H17.0022C17.957 15.1563 19.3378 15.0459 20.1594 14.1647C21.043 13.2188 21.0745 11.6751 20.2072 10.7136C18.8376 9.09799 16.1481 10.3053 16.4054 12.7001L14.8659 11.0938L13.0804 9.34486C13.4485 8.59591 13.9315 7.9407 14.5365 7.37403C14.4714 7.43132 14.4053 7.4907 14.3443 7.55007C17.7547 4.12299 23.2901 5.75424 24.5794 10.549V10.5553C26.3253 17.1063 18.9728 22.0834 14.3464 17.5001C14.2518 17.3959 7.85916 10.3636 8.26384 10.8094L8.25978 10.7938C8.24351 10.7938 8.24351 10.7782 8.24351 10.7782C7.24094 9.71882 5.88148 9.8782 5.08634 10.7459C4.20172 11.6917 4.17122 13.2355 5.04058 14.1824C6.35022 15.7605 9.09762 14.5907 8.83935 12.148C8.939 12.2532 12.387 15.8792 12.1673 15.649C11.6091 16.7897 10.9848 17.3136 10.7072 17.623Z" fill="#DF6951"/>
</svg>
