<svg width="26" height="24" viewBox="0 0 26 24" fill="none" xmlns="http://www.w3.org/2000/svg">
<path d="M20.377 4H18.232V3C18.232 2.73478 18.119 2.48043 17.9179 2.29289C17.7168 2.10536 17.444 2 17.1595 2C16.8751 2 16.6023 2.10536 16.4012 2.29289C16.2 2.48043 16.087 2.73478 16.087 3V4H9.65203V3C9.65203 2.73478 9.53904 2.48043 9.3379 2.29289C9.13677 2.10536 8.86398 2 8.57953 2C8.29509 2 8.02229 2.10536 7.82116 2.29289C7.62003 2.48043 7.50703 2.73478 7.50703 3V4H5.36203C4.5087 4 3.69031 4.31607 3.08692 4.87868C2.48352 5.44129 2.14453 6.20435 2.14453 7V19C2.14453 19.7956 2.48352 20.5587 3.08692 21.1213C3.69031 21.6839 4.5087 22 5.36203 22H20.377C21.2304 22 22.0487 21.6839 22.6521 21.1213C23.2555 20.5587 23.5945 19.7956 23.5945 19V7C23.5945 6.20435 23.2555 5.44129 22.6521 4.87868C22.0487 4.31607 21.2304 4 20.377 4ZM21.4495 19C21.4495 19.2652 21.3365 19.5196 21.1354 19.7071C20.9343 19.8946 20.6615 20 20.377 20H5.36203C5.07759 20 4.80479 19.8946 4.60366 19.7071C4.40253 19.5196 4.28953 19.2652 4.28953 19V12H21.4495V19ZM21.4495 10H4.28953V7C4.28953 6.73478 4.40253 6.48043 4.60366 6.29289C4.80479 6.10536 5.07759 6 5.36203 6H7.50703V7C7.50703 7.26522 7.62003 7.51957 7.82116 7.70711C8.02229 7.89464 8.29509 8 8.57953 8C8.86398 8 9.13677 7.89464 9.3379 7.70711C9.53904 7.51957 9.65203 7.26522 9.65203 7V6H16.087V7C16.087 7.26522 16.2 7.51957 16.4012 7.70711C16.6023 7.89464 16.8751 8 17.1595 8C17.444 8 17.7168 7.89464 17.9179 7.70711C18.119 7.51957 18.232 7.26522 18.232 7V6H20.377C20.6615 6 20.9343 6.10536 21.1354 6.29289C21.3365 6.48043 21.4495 6.73478 21.4495 7V10Z" fill="#7D7D7D"/>
</svg>
