<svg width="95" height="94" viewBox="0 0 95 94" fill="none" xmlns="http://www.w3.org/2000/svg">
<path d="M47.4977 0.625C21.756 0.625 0.883789 21.3902 0.883789 47C0.883789 72.6098 21.756 93.375 47.4977 93.375C73.2393 93.375 94.1115 72.6098 94.1115 47C94.1115 21.3902 73.2393 0.625 47.4977 0.625ZM62.4911 47.7143L39.7668 64.1629C39.6423 64.252 39.4954 64.3051 39.3424 64.3166C39.1894 64.328 39.0363 64.2973 38.8997 64.2277C38.7631 64.1582 38.6485 64.0526 38.5683 63.9224C38.4882 63.7923 38.4457 63.6427 38.4454 63.49V30.6135C38.4449 30.4605 38.487 30.3105 38.567 30.1799C38.6469 30.0493 38.7617 29.9433 38.8986 29.8736C39.0354 29.8039 39.189 29.7733 39.3422 29.7851C39.4955 29.797 39.6424 29.8508 39.7668 29.9406L62.4911 46.3789C62.5985 46.4544 62.686 46.5545 62.7465 46.6707C62.8069 46.7869 62.8385 46.9158 62.8385 47.0466C62.8385 47.1774 62.8069 47.3063 62.7465 47.4225C62.686 47.5387 62.5985 47.6387 62.4911 47.7143Z" fill="#DF6951"/>
</svg>
