<svg width="22" height="20" viewBox="0 0 22 20" fill="none" xmlns="http://www.w3.org/2000/svg">
<path d="M10.715 8C12.5382 8 13.9969 6.65 13.9969 5C13.9969 3.35 12.5382 2 10.715 2C8.89175 2 7.43315 3.35 7.43315 5C7.43315 6.65 8.89175 8 10.715 8ZM10.715 10C7.712 10 5.28815 7.76 5.28815 5C5.28815 2.24 7.712 0 10.715 0C13.718 0 16.1419 2.24 16.1419 5C16.1419 7.76 13.718 10 10.715 10ZM3.2075 18H18.2225V16.67C18.2225 14.92 15.745 13.11 10.715 13.11C5.68497 13.11 3.2075 14.92 3.2075 16.67V18ZM10.715 11.11C17.8578 11.11 20.3675 14.44 20.3675 16.67V20H1.0625V16.67C1.0625 14.44 3.57215 11.11 10.715 11.11Z" fill="#7D7D7D"/>
</svg>
